<svg width="1000" height="390" viewBox="0 0 1000 390" fill="none" xmlns="http://www.w3.org/2000/svg">
<g clip-path="url(#clip0_17_1169)">
<path d="M378.39 0L0 138.1L378.43 71.25V0H378.39Z" fill="#FFE600"/>
<path d="M258.36 195.529L225.84 257.999L193.41 195.529H129.93L196.81 311.339V386.959H254.05V311.339L321.02 195.529H258.36ZM3.2998 195.529V386.959H156.44V342.929H60.7198V311.349H129.93V271.159H60.7198V239.569H137.29L111.89 195.539H3.2998V195.529ZM473.31 348.709C473.31 372.779 458.03 389.199 423.84 389.199C404.36 389.199 387.55 380.799 376.28 367.619L390.6 353.679C399.58 363.419 412.76 369.529 425.36 369.529C444.08 369.529 453.05 363.039 453.05 350.049C453.05 339.739 445.22 334.579 422.87 327.889C394.6 319.489 381.04 312.419 381.04 288.549C381.04 264.679 400.52 251.309 425.16 251.309C443.3 251.309 457.06 257.989 468.9 269.449L454.77 283.769C446.37 275.179 436.82 270.969 423.64 270.969C407.98 270.969 401.29 278.609 401.29 287.589C401.29 296.569 407.4 301.529 430.51 308.409C456.87 316.429 473.29 324.839 473.29 348.709H473.31ZM539.01 367.239L536.72 384.619C531.95 387.289 525.26 389.199 517.43 389.199C503.49 389.199 494.89 380.609 494.89 362.649V304.779H480.57V286.829H494.89V258.179L514.18 247.869V286.829H539.01V304.779H514.18V359.209C514.18 368.569 517.24 371.239 524.49 371.239C529.65 371.239 535.38 369.329 539.01 367.229V367.239ZM635.46 387.099H615.79V377.549C610.82 384.809 600.89 389.199 590.58 389.199C567.28 389.199 554.86 373.919 554.86 344.319V286.829H574.53V343.559C574.53 363.809 582.17 371.059 595.16 371.059C608.15 371.059 615.79 361.699 615.79 345.469V286.829H635.46V387.099ZM735.16 387.099H715.68V377.549C708.42 384.229 700.02 389.199 689.51 389.199C667.93 389.199 650.93 373.539 650.93 335.339C650.93 300.959 669.65 284.729 690.47 284.729C700.59 284.729 710.14 290.079 715.68 296.189V257.989L735.16 247.869V387.099ZM715.87 358.259V316.049C711.48 310.129 702.31 302.869 692.38 302.869C678.25 302.869 670.61 313.569 670.61 334.769C670.61 359.979 678.63 371.059 693.15 371.059C702.51 371.059 710.72 364.759 715.88 358.259H715.87ZM778.71 261.239C778.71 268.119 772.98 273.849 766.1 273.849C759.22 273.849 753.3 268.119 753.3 261.239C753.3 254.359 759.03 248.439 766.1 248.439C773.17 248.439 778.71 254.169 778.71 261.239ZM775.85 387.099H756.18V286.829H775.85V387.099ZM881.66 336.489C881.66 369.719 862.18 389.199 836.39 389.199C810.6 389.199 792.27 368.379 792.27 337.059C792.27 305.739 811.75 284.729 836.96 284.729C862.17 284.729 881.65 305.169 881.65 336.489H881.66ZM861.8 337.059C861.8 316.619 852.06 303.449 836.21 303.449C821.31 303.449 812.14 316.629 812.14 336.489C812.14 358.449 822.26 370.489 837.16 370.489C852.06 370.489 861.8 355.399 861.8 337.069V337.059Z" fill="white"/>
<path d="M1000 327.13H959.701V286.83H940.031V327.13H899.73V346.8H940.031V387.1H959.701V346.8H1000V327.13Z" fill="url(#paint0_linear_17_1169)"/>
</g>
<defs>
<linearGradient id="paint0_linear_17_1169" x1="924.03" y1="362.8" x2="985.5" y2="301.33" gradientUnits="userSpaceOnUse">
<stop offset="0.15" stop-color="#FFE600"/>
<stop offset="0.18" stop-color="#FFDF08"/>
<stop offset="0.23" stop-color="#FFCE21"/>
<stop offset="0.29" stop-color="#FFB249"/>
<stop offset="0.36" stop-color="#FF8B80"/>
<stop offset="0.44" stop-color="#FF5AC5"/>
<stop offset="0.5" stop-color="#FF32FF"/>
<stop offset="0.53" stop-color="#F739FF"/>
<stop offset="0.57" stop-color="#E34DFF"/>
<stop offset="0.62" stop-color="#C26EFF"/>
<stop offset="0.64" stop-color="#B27EFF"/>
<stop offset="0.76" stop-color="#7BB5FF"/>
<stop offset="0.87" stop-color="#53DDFF"/>
<stop offset="0.91" stop-color="#32FFFF"/>
<stop offset="0.95" stop-color="#3AF6FF"/>
</linearGradient>
<clipPath id="clip0_17_1169">
<rect width="1000" height="389.2" fill="white"/>
</clipPath>
</defs>
</svg>
