<svg width="4267" height="2281" viewBox="0 0 4267 2281" fill="none" xmlns="http://www.w3.org/2000/svg">
<g clip-path="url(#clip0_17_732)">
<path fill-rule="evenodd" clip-rule="evenodd" d="M1768.71 803.136C1770.01 653.683 1819.47 512.589 1919.59 390.282C2010.72 278.985 2126.54 205.026 2265.8 168.214C2292.26 161.214 2319.02 155.907 2346.24 152.521C2377.89 148.589 2409.59 145.787 2441.49 146.198C2452.95 146.349 2464.38 147.349 2475.84 148.026C2479.01 148.214 2482.17 148.667 2485.36 148.881C2570.26 154.386 2650.64 176.839 2726.92 214.136C2806.92 253.24 2876.28 306.375 2934.97 373.386C2937.08 375.771 2939.17 378.172 2941.21 380.625C2944.67 384.813 2944.21 387.573 2939.68 389.547C2935.6 391.318 2931.43 392.881 2927.32 394.589C2802.19 446.589 2677.07 498.589 2551.95 550.615C2547.26 552.563 2542.65 554.693 2538.04 556.787C2536.64 557.427 2535.79 560.563 2536.67 561.771C2540.02 566.401 2543.31 571.079 2546.85 575.573C2594.24 635.599 2641.67 695.589 2689.08 755.589C2691.44 758.589 2693.71 761.667 2695.97 764.735C2696.89 765.985 2696.42 769.026 2695.2 769.907C2693.67 771.016 2692.19 772.24 2690.54 773.172C2673.37 782.922 2656.19 792.625 2638.97 802.282C2637.32 803.214 2635.49 803.959 2633.65 804.349C2632.52 804.589 2631.12 804.162 2630.01 803.667C2628.89 803.162 2627.85 802.318 2627 801.401C2589.49 761.308 2554.26 719.412 2525.87 672.172C2501.47 631.589 2481.84 588.948 2469.17 543.172C2458.75 505.454 2453.81 467.136 2454.16 428C2454.59 380.266 2463.33 334.334 2482 290.349C2482.99 288.016 2483.83 285.599 2484.6 283.188C2484.75 282.719 2484.32 281.933 2483.95 281.48C2483.72 281.198 2482.9 281.026 2482.64 281.214C2480.08 283.068 2477.36 284.761 2475.09 286.948C2461.32 300.198 2447.43 313.36 2433.99 326.959C2359.47 402.334 2290.42 482.349 2229 568.829C2188.36 626.052 2151.55 685.589 2120.87 748.813C2098.85 794.162 2080.4 840.855 2067.11 889.563C2059.55 917.266 2053.87 945.349 2050.56 973.828C2046.5 1008.73 2046.32 1043.8 2050.44 1078.75C2051.71 1089.48 2054.14 1100.07 2056 1110.73C2056.77 1115.12 2057.54 1119.52 2058.09 1123.93C2058.45 1126.71 2056.87 1128.75 2054.8 1130.38C2053.8 1131.16 2052.72 1131.85 2051.61 1132.48C2005 1158.71 1958.37 1184.92 1911.75 1211.1C1910.64 1211.73 1909.44 1212.15 1908.28 1212.67C1906.47 1213.45 1902.63 1212.51 1901.28 1210.81C1899.69 1208.83 1898.17 1206.79 1896.67 1204.72C1854.92 1147.73 1823.2 1085.6 1801.2 1018.48C1789.26 982.078 1780.84 944.855 1775.21 907.016C1770.5 875.453 1769.07 843.615 1768.71 803.136Z" fill="#13A4DE"/>
<path fill-rule="evenodd" clip-rule="evenodd" d="M3938.05 3.65137C3608.04 221.907 3278.01 440.172 2948.04 658.495C2942.26 662.308 2935.87 665.453 2930.78 671.453C2934.29 675.334 2937.5 679.146 2940.99 682.709C2984.19 726.959 3027.44 771.172 3070.66 815.401C3074.68 819.506 3078.76 823.547 3082.59 827.813C3083.73 829.094 3084.13 831.052 3085.11 833.214C3080.71 835.016 3076.66 836.828 3072.52 838.36C2976.47 873.896 2880.41 909.438 2784.32 944.896C2547.38 1032.33 2310.44 1119.71 2073.5 1207.15C1948.17 1253.39 1822.88 1299.72 1697.5 1345.88C1691.6 1348.05 1685.88 1351.26 1679.28 1351.23L1679.69 1351.71C1679.83 1350.56 1679.54 1348.76 1680.16 1348.38C1685.53 1344.98 1690.99 1341.72 1696.56 1338.67C1808.25 1277.59 1919.97 1216.55 2031.66 1155.48C2259.53 1030.9 2487.4 906.292 2715.26 781.709C2719.19 779.573 2723.16 777.547 2727.04 775.36C2736.96 769.813 2737.29 768.469 2730.24 759.907C2692.56 714.162 2654.84 668.453 2617.13 622.735C2604.56 607.495 2591.99 592.256 2579.43 577C2577.43 574.563 2575.16 572.256 2574.68 568.959C2577.2 564.667 2581.66 563.839 2585.68 562.172C2627.96 544.599 2670.21 526.948 2712.49 509.401C2985.02 396.23 3257.54 283.052 3530.09 169.948C3658.14 116.802 3786.26 63.7868 3914.35 10.7191C3917.87 9.26595 3921.53 8.04199 3924.85 6.19824C3929.08 3.83887 3933.53 4.70866 3937.93 4.47949L3938.05 3.65137Z" fill="#E42E2B"/>
<path fill-rule="evenodd" clip-rule="evenodd" d="M1753.57 812.453C1753.84 843.094 1755.31 873.667 1759.59 904C1774.92 1012.47 1813.42 1111.92 1876.09 1201.92C1880.69 1208.52 1887.28 1214.07 1888.48 1222.73C1882.85 1229.19 1874.8 1231.9 1867.68 1235.96C1841.13 1251.14 1814.45 1266.05 1787.8 1281.02C1785.05 1282.55 1782.14 1283.86 1779.19 1284.91C1778.23 1285.24 1776.4 1284.74 1775.72 1283.97C1772.78 1280.65 1769.93 1277.23 1767.4 1273.6C1725.16 1213.2 1691.9 1148.19 1667.37 1078.69C1652.49 1036.57 1641.26 993.453 1633.72 949.469C1629.2 923.12 1626.17 896.547 1624.17 869.813C1622.12 842.411 1621.21 815.078 1621.97 787.682C1622.64 764.104 1624.69 740.625 1627.31 717.188C1630.13 691.839 1634.37 666.76 1639.59 641.802C1652.78 578.505 1673.59 517.854 1701.53 459.615C1789.9 275.427 1948.45 126.693 2145.42 52.0677C2191.35 34.6667 2238.47 21.5469 2286.71 12.7604C2310.47 8.4375 2334.36 4.21354 2358.63 3.47917C2396.07 -1.71875 2433.72 0.437503 2471.31 0.437503C2477.67 0.437503 2484.02 1.1875 2490.37 1.73438C2494.81 2.11979 2499.23 2.98438 2503.67 3.22917C2524.68 4.375 2545.38 7.6823 2566.16 10.9844C2626.13 20.5469 2683.96 37.349 2740.08 60.349C2818.49 92.4792 2889.99 136 2954.77 190.651C2998.31 227.385 3037.52 268.214 3072.55 313.094C3075.28 316.615 3077.93 320.198 3080.53 323.828C3083.28 327.651 3082.25 330.349 3077.37 332.521C3076.8 332.786 3076.19 332.974 3075.59 333.214C3040.35 347.88 3005.11 362.547 2969.85 377.198C2968.68 377.693 2967.49 378.172 2966.28 378.521C2963.02 379.438 2959.84 379.12 2957.42 376.667C2954.73 373.958 2952.42 370.896 2949.9 368.016C2876.19 283.307 2787.47 219.734 2682.85 178.589C2644.88 163.651 2605.89 152.318 2565.8 144.453C2544.52 140.266 2523 138.12 2501.68 134.521C2469.85 133.682 2438.11 129.24 2406.19 132.531C2401.12 133.052 2396 133.266 2390.9 133.385C2368.56 133.906 2346.57 137.318 2324.52 140.708C2279.04 147.667 2234.95 159.682 2192.07 176.104C2083.36 217.771 1991.26 283.12 1915.72 371.625C1852.35 445.88 1807.16 530.042 1780.08 623.839C1769.63 660 1761.95 696.745 1758.28 734.266C1757.42 743.135 1755.88 751.974 1755.42 760.854C1754.52 778.042 1754.16 795.255 1753.57 812.453Z" fill="#13A4DE"/>
<path fill-rule="evenodd" clip-rule="evenodd" d="M3131.9 848.146C3130.85 846.001 3130.32 844.094 3129.17 842.683C3125.97 838.719 3122.59 834.907 3119.14 831.146C3115.93 827.652 3114.81 823.573 3114.77 818.922C3114.67 806.803 3114.45 794.693 3114.13 782.589C3112.81 733.292 3104.87 685.001 3092.31 637.402C3089.4 626.36 3086.21 615.386 3083.3 604.855C3084.35 603.188 3084.76 601.771 3085.71 601.12C3118.8 578.402 3151.93 555.761 3185.09 533.136C3186.12 532.428 3187.38 532.068 3188.54 531.506C3190.16 530.709 3192.87 531.318 3193.54 532.745C3194.85 535.626 3196.32 538.469 3197.36 541.469C3210.69 580.016 3221.33 619.266 3228.92 659.412C3233.07 681.36 3236.48 703.402 3238.73 725.532C3242.02 757.865 3243.71 790.334 3243.24 822.907C3242.89 847.172 3241.44 871.386 3238.75 895.412C3221.05 1053.92 3163.11 1196.03 3062.45 1320.02C2964.04 1441.24 2840.65 1527.26 2692.9 1578.05C2655.57 1590.9 2617.42 1600.55 2578.54 1607.67C2555.96 1611.81 2533.21 1614.41 2510.52 1617.44C2504.21 1618.28 2497.8 1618.27 2491.44 1618.59C2485.07 1618.92 2478.64 1618.76 2472.35 1619.57C2453.3 1622.04 2434.16 1621.15 2415.05 1621.26C2411.24 1621.28 2407.42 1620.88 2403.61 1620.63C2394.08 1619.97 2384.55 1619.08 2375 1618.68C2364.17 1618.24 2353.38 1617.62 2342.65 1615.84C2331.36 1613.97 2319.93 1613.09 2308.59 1611.4C2266.31 1605.1 2224.92 1595.28 2184.32 1582.14C2055.75 1540.52 1944.59 1470.83 1850.25 1374.21C1839.57 1363.28 1829.59 1351.65 1819.43 1340.21C1817.84 1338.43 1817.04 1335.95 1815.6 1333.29C1819.67 1331.36 1822.97 1329.47 1826.48 1328.16C1863.47 1314.51 1900.52 1301.02 1937.48 1287.31C1942.35 1285.51 1945.95 1286.43 1949.49 1290.02C1969.72 1310.4 1991.07 1329.55 2013.67 1347.27C2086.75 1404.6 2168.05 1445.51 2257.8 1469.65C2279.33 1475.44 2301.08 1480.29 2323.02 1483.81C2337.43 1486.14 2351.85 1489.24 2366.6 1489.08C2399.56 1494.26 2432.76 1492.36 2465.88 1492.21C2474.76 1492.17 2483.65 1490.92 2492.54 1490.17C2495.71 1489.91 2498.85 1489.33 2502.02 1489.09C2537.68 1486.39 2572.55 1479.43 2607.11 1470.48C2687.52 1449.67 2761.56 1415.17 2828.87 1366.63C2962.05 1270.57 3050.08 1143.02 3093.02 984.547C3101.36 953.803 3107.37 922.506 3110.33 890.693C3111.28 880.547 3112.55 870.428 3113.73 860.308C3114.04 857.652 3115.32 855.48 3117.85 854.334C3122.43 852.266 3127.04 850.282 3131.9 848.146Z" fill="#13A4DE"/>
<path fill-rule="evenodd" clip-rule="evenodd" d="M2419.43 2132.47C2413.96 2138.55 2409.83 2145.74 2405.28 2152.61C2379.96 2190.86 2354.71 2229.17 2329.4 2267.44C2326.6 2271.65 2323.57 2275.73 2320.64 2279.9C2317.72 2280.21 2315.23 2280.73 2312.73 2280.73C2271.93 2280.79 2231.14 2280.79 2190.35 2280.76C2188.44 2280.76 2186.55 2280.47 2184.64 2280.32C2182.95 2280.19 2181.36 2277.55 2182.24 2276.24C2184.73 2272.55 2187.13 2268.79 2189.81 2265.23C2250.33 2184.74 2310.87 2104.28 2371.44 2023.84C2374.11 2020.29 2377.05 2016.97 2380.12 2013.24C2383.92 2013.05 2387.69 2012.73 2391.47 2012.71C2455.84 2012.43 2520.23 2012.2 2584.6 2011.91C2633.05 2011.69 2681.5 2012.05 2729.92 2010.96C2777.73 2009.88 2825.54 2010.41 2873.33 2010.19C2963.21 2009.77 3053.09 2009.47 3142.97 2009.24C3254.52 2008.96 3366.08 2008.84 3477.64 2008.6C3526.72 2008.49 3575.81 2008.31 3624.89 2008.08C3672.05 2007.86 3719.24 2008.2 3766.38 2007.15C3814.83 2006.05 3863.26 2006.57 3911.69 2006.35C4014.96 2005.9 4118.23 2005.51 4221.49 2005.21C4247.79 2005.14 4245.37 2002.73 4244.26 2028.55C4243.17 2054.02 4242.49 2079.49 4241.45 2104.97C4241.23 2110.65 4240.35 2116.33 4239.6 2121.98C4239.32 2124.15 4236.36 2126.72 4234.35 2126.77C4228.61 2126.93 4222.88 2127.09 4217.14 2127.1C4153.4 2127.19 4089.65 2127.28 4025.9 2127.32C3908.6 2127.39 3791.31 2127.4 3674.01 2127.48C3640.23 2127.51 3606.44 2127.64 3572.65 2127.76C3517.2 2127.96 3461.73 2127.52 3406.3 2128.59C3340.64 2129.85 3274.99 2129.02 3209.33 2129.37C3144.32 2129.73 3079.31 2129.97 3014.3 2130.17C2948.63 2130.37 2882.97 2130.51 2817.32 2130.62C2691.73 2130.86 2566.14 2131.07 2440.57 2131.35C2433.6 2131.36 2426.56 2130.45 2419.43 2132.47Z" fill="#EB3837"/>
<path fill-rule="evenodd" clip-rule="evenodd" d="M2011.65 2035.05C2011.14 2013.86 2004.92 1996.1 1991.87 1981.23C1972.59 1959.25 1937.14 1944.25 1900.02 1964.44C1873.13 1979.05 1859.57 2003.14 1859.45 2033.24C1859.33 2063.37 1872.77 2087.49 1899.71 2102.14C1926.68 2116.8 1953.65 2114.97 1978.78 2097.32C2000.6 2082 2010.43 2059.95 2011.65 2035.05ZM1801.37 2127.61C1796.16 2127.43 1791.75 2127.14 1787.32 2127.14C1648.99 2127.23 1510.67 2127.35 1372.35 2127.45C1341.75 2127.47 1311.14 2127.44 1280.55 2127.48C1213.61 2127.56 1146.69 2127.61 1079.76 2127.77C1019.2 2127.92 958.639 2127.53 898.108 2128.59C826.717 2129.84 755.332 2128.92 683.962 2129.41C664.201 2129.56 644.451 2129.96 624.691 2130.14C620.894 2130.17 617.092 2129.73 613.306 2129.37C611.05 2129.16 608.639 2126.55 608.478 2124.17C608.144 2119.09 607.811 2114 607.707 2108.92C607.519 2100 607.545 2091.08 607.441 2082.15C607.228 2064.95 606.92 2047.73 606.785 2030.53C606.759 2026.09 606.972 2021.6 607.681 2017.24C607.905 2015.8 609.931 2013.68 611.306 2013.55C617.629 2012.95 624.014 2012.74 630.373 2012.72C660.332 2012.57 690.295 2012.61 720.254 2012.43C778.238 2012.05 836.254 2012.03 894.238 2011.03C979.639 2009.56 1065.04 2009.52 1150.44 2009.23C1214.81 2009 1279.2 2008.84 1343.57 2008.6C1373.53 2008.49 1403.49 2008.31 1433.45 2008.08C1462.12 2007.86 1490.81 2007.85 1519.48 2007.25C1599.77 2005.6 1680.07 2005.44 1760.37 2005.17C1762.92 2005.16 1765.47 2005.17 1768.02 2005.09C1774.21 2004.92 1776.26 2003.37 1777.5 1997.98C1777.92 1996.12 1778.11 1994.21 1778.55 1992.35C1786.77 1957.33 1803.36 1927.03 1829.61 1902.25C1852.84 1880.35 1880.01 1866.17 1911.33 1859.25C1929.72 1855.19 1948.2 1854.37 1966.42 1856.81C2008.25 1862.43 2043.96 1880.92 2072.25 1912.59C2096.24 1939.41 2109.95 1970.74 2115.87 2006.45C2125.81 2066.32 2099.05 2147.9 2024.56 2187.41C1997.6 2201.72 1968.6 2208.88 1938.09 2207.16C1904.31 2205.24 1873.33 2194.4 1845.92 2174.14C1833.02 2164.6 1821.47 2153.73 1811.73 2140.95C1808.65 2136.91 1805.49 2132.92 1801.37 2127.61Z" fill="#13A4DE"/>
<path fill-rule="evenodd" clip-rule="evenodd" d="M2434.97 1477.55C2420.95 1477.31 2406.92 1477.27 2392.9 1476.73C2384.64 1476.41 2376.36 1475.65 2368.17 1474.5C2356.2 1472.8 2344.14 1471.92 2332.16 1470.08C2294.3 1464.28 2257.33 1455.17 2221.09 1442.92C2127.25 1411.16 2044.79 1360.72 1973.3 1292.23C1970.08 1289.15 1967.13 1285.8 1964.11 1282.53C1962.89 1281.21 1963.56 1278.79 1965.28 1277.97C1967.59 1276.88 1969.81 1275.63 1972.2 1274.76C2012.21 1260.1 2052.25 1245.52 2092.28 1230.91C2094.07 1230.26 2095.83 1229.15 2097.64 1229.05C2099.38 1228.96 2101.88 1229.35 2102.84 1230.52C2106.04 1234.45 2108.81 1238.76 2111.55 1243.07C2117.37 1252.28 2124.43 1260.41 2132.2 1268.05C2168.88 1304.05 2209.63 1334.29 2256.43 1355.97C2287.77 1370.5 2320.4 1380.57 2354.61 1386.02C2379.96 1390.04 2405.31 1390.77 2430.83 1389.9C2496.32 1387.65 2557.26 1369.07 2615.14 1339.1C2636.92 1327.83 2655.83 1312.98 2672.38 1295C2705.71 1258.79 2730.38 1217.63 2743.97 1170.12C2749.95 1149.21 2753.69 1127.97 2754.5 1106.17C2755.73 1073.45 2752.84 1041.24 2744.21 1009.6C2743.37 1006.53 2742.59 1003.44 2741.99 1000.32C2741.02 995.36 2741.4 992.589 2747.77 990.266C2771.68 981.573 2795.52 972.719 2819.4 963.933C2904.16 932.735 2988.9 901.506 3073.71 870.427C3080.23 868.042 3086.48 864.599 3093.65 864.136C3095.25 864.026 3097.52 865.745 3097.5 867.386C3097.49 869.933 3097.61 872.495 3097.36 875.026C3088.65 959.563 3065.8 1039.92 3027 1115.69C2950.68 1264.71 2810.37 1397.04 2616.07 1452.93C2590.4 1460.31 2564.25 1465.75 2537.79 1469.92C2522.67 1472.31 2507.45 1473.77 2492.31 1475.57C2477.16 1477.36 2461.75 1476.87 2446.45 1477.32C2442.64 1477.44 2438.8 1477.33 2434.99 1477.33C2434.97 1477.41 2434.97 1477.48 2434.97 1477.55Z" fill="#13A4DE"/>
<path fill-rule="evenodd" clip-rule="evenodd" d="M541.399 1044.08C539.92 1045.29 538.545 1045.84 538.264 1046.73C536.946 1050.96 535.665 1055.23 534.826 1059.56C531.264 1078.25 527.868 1096.97 524.399 1115.67C520.373 1137.49 516.321 1159.32 512.305 1181.15C511.535 1185.37 513.998 1188.21 518.8 1188.25C532.759 1188.37 546.732 1188.32 560.691 1188.25C561.894 1188.25 563.227 1187.83 564.253 1187.2C565.253 1186.59 566.467 1185.55 566.639 1184.53C566.946 1182.74 566.706 1180.81 566.384 1179C560.305 1145.29 554.227 1111.59 548.05 1077.91C545.998 1066.72 543.68 1055.6 541.399 1044.08ZM286.357 1079.74C295.305 1103.97 303.878 1127.24 312.493 1150.49C335.279 1211.97 358.066 1273.45 380.894 1334.91C382.654 1339.65 384.748 1344.28 386.774 1348.92C387.384 1350.29 388.639 1350.47 390.014 1349.61C390.503 1349.31 391.238 1348.98 391.347 1348.55C394.441 1336.21 397.628 1323.9 400.477 1311.5C415.16 1247.61 429.748 1183.68 444.399 1119.77C456.639 1066.41 468.962 1013.08 481.227 959.734C483.93 947.948 486.451 936.119 489.321 924.359C490.503 919.479 492.331 914.744 493.837 910.093C496.238 909.453 498.05 908.547 499.868 908.531C527.264 908.437 554.68 908.427 582.081 908.494C586.295 908.505 589.399 911.026 590.357 915.078C593.451 928.078 596.425 941.104 599.415 954.135C616.904 1030.44 634.399 1106.74 651.878 1183.05C664.68 1238.91 677.451 1294.74 690.186 1350.61C690.748 1353.08 690.811 1355.64 691.081 1358.17C691.238 1359.74 689.477 1362.2 688.066 1362.43C686.811 1362.62 685.571 1363.02 684.321 1363.02C658.826 1363.04 633.321 1363.08 607.826 1362.92C605.441 1362.91 603.066 1361.6 600.493 1360.84C596.024 1337.36 591.628 1314.29 587.331 1291.79C585.451 1290.74 584.357 1289.62 583.264 1289.61C556.503 1289.31 529.748 1289.08 502.998 1288.97C499.894 1288.95 496.785 1289.67 493.998 1290.02C490.68 1296.36 489.785 1302.64 488.691 1308.91C485.946 1324.59 483.024 1340.23 480.17 1355.9C480.05 1356.5 479.759 1357.09 479.597 1357.71C479.014 1359.96 476.503 1362.36 474.264 1362.56C471.107 1362.84 467.93 1363.15 464.774 1363.15C408.665 1363.19 352.571 1363.19 296.477 1363.16C292.05 1363.16 287.503 1363.59 282.92 1360.47C280.503 1353.19 277.759 1345.39 275.305 1337.5C260.904 1291.32 246.607 1245.1 232.18 1198.93C230.722 1194.27 229.743 1189.32 226.274 1185.02C224.696 1186.28 222.795 1187.16 221.91 1188.64C209.805 1208.85 197.925 1229.21 185.779 1249.4C183.321 1253.48 182.857 1257.72 182.857 1262.2C182.842 1287.07 182.868 1311.92 182.811 1336.79C182.795 1343.79 182.566 1350.79 182.352 1357.8C182.279 1360.12 179.805 1362.37 177.363 1362.64C176.732 1362.71 176.113 1362.96 175.482 1362.96C151.264 1362.97 127.045 1362.98 102.826 1362.95C101.587 1362.95 100.102 1362.79 99.1596 1362.1C97.7325 1361.08 95.9616 1359.69 95.6231 1358.16C94.946 1355.09 95.0033 1351.84 94.9929 1348.67C94.9408 1332.09 94.9616 1315.52 94.9616 1298.95C94.9616 1177.83 94.9564 1056.71 94.9668 935.599C94.9668 929.213 94.9825 922.838 95.1439 916.468C95.2741 911.146 97.8471 908.786 103.587 908.427C104.222 908.385 104.863 908.317 105.498 908.317C127.805 908.317 150.118 908.317 172.425 908.333C173.696 908.333 174.962 908.562 176.227 908.682C179.634 909 182.441 911.521 182.54 914.625C182.712 920.359 182.816 926.093 182.821 931.828C182.842 973.906 182.811 1015.97 182.889 1058.04C182.894 1061.08 183.613 1064.14 184.144 1067.15C184.196 1067.44 185.472 1067.88 185.857 1067.67C186.92 1067.09 188.149 1066.39 188.717 1065.39C191.852 1059.85 194.868 1054.24 197.821 1048.6C219.675 1006.85 241.524 965.104 263.347 923.333C271.68 907.359 270.878 908.265 288.186 908.239C315.597 908.198 342.998 908.198 370.415 908.281C374.212 908.281 378.014 908.802 381.8 909.135C383.134 909.255 384.628 912.505 383.93 913.76C380.837 919.307 377.868 924.932 374.639 930.401C349.68 972.625 324.665 1014.81 299.68 1057.03C295.467 1064.15 291.305 1071.29 286.357 1079.74Z" fill="#EB3837"/>
<path fill-rule="evenodd" clip-rule="evenodd" d="M1464.13 1188.52C1464.13 1188.51 1464.13 1188.48 1464.13 1188.47C1469.87 1188.47 1475.6 1188.51 1481.32 1188.44C1483.23 1188.43 1485.13 1188.17 1487.02 1187.97C1489.08 1187.77 1491.61 1184.73 1491.45 1182.57C1491.21 1179.4 1491.12 1176.2 1490.55 1173.08C1483.99 1137.44 1477.4 1101.8 1470.72 1066.17C1469.55 1059.95 1467.97 1053.81 1466.5 1047.65C1466.44 1047.36 1465.57 1047.15 1465.07 1047.12C1464.45 1047.09 1463.45 1047.08 1463.26 1047.41C1462.35 1049.04 1461.26 1050.72 1460.93 1052.51C1453.42 1092.49 1445.95 1132.51 1438.55 1172.52C1435.81 1187.28 1436.85 1188.67 1452.68 1188.52C1456.49 1188.49 1460.32 1188.52 1464.13 1188.52ZM1156.14 1002.53C1156.14 1002.65 1156.14 1002.77 1156.14 1002.9C1149.17 1002.9 1142.19 1002.71 1135.24 1003.05C1133.83 1003.12 1131.85 1004.95 1131.32 1006.4C1130.48 1008.71 1130.4 1011.38 1130.4 1013.9C1130.33 1036.09 1130.35 1058.29 1130.37 1080.51C1130.38 1082.4 1130.67 1084.29 1130.83 1086.19C1131.02 1088.53 1133.36 1091.21 1135.56 1091.24C1146.32 1091.33 1157.08 1091.49 1167.84 1091.32C1173.61 1091.23 1178.92 1088.93 1184.36 1087.15C1190.81 1085.04 1195.48 1080.91 1198.52 1075.21C1200.88 1070.8 1202.83 1065.96 1203.87 1061.08C1206.16 1050.43 1206.19 1039.49 1203.72 1028.95C1199.8 1012.14 1192.2 1005.83 1175.16 1002.83C1173.31 1002.51 1171.36 1002.56 1169.47 1002.55C1165.02 1002.51 1160.59 1002.53 1156.14 1002.53ZM1526.54 1361.61C1521.35 1349.05 1520.87 1336.15 1518.16 1323.74C1516.13 1314.41 1514.75 1304.95 1512.95 1295.57C1512.17 1291.52 1509.17 1289.14 1504.73 1289.09C1491.35 1288.95 1477.96 1288.9 1464.56 1288.9C1451.17 1288.9 1437.79 1288.88 1424.4 1289.09C1419.63 1289.16 1416.75 1290.33 1415.45 1297.07C1413.66 1306.45 1412.2 1315.91 1410.42 1325.28C1408.38 1335.91 1406.25 1346.52 1403.97 1357.09C1403.17 1360.81 1400.84 1362.63 1397.43 1362.83C1394.25 1363 1391.07 1363.17 1387.88 1363.17C1336.24 1363.19 1284.6 1363.2 1232.96 1363.16C1229.14 1363.15 1225.3 1363 1221.56 1362.38C1219.92 1362.09 1217.77 1360.76 1217.14 1359.33C1215.09 1354.69 1213.55 1349.81 1211.93 1344.97C1198 1303.31 1184.14 1261.63 1170.12 1219.98C1167.69 1212.76 1164.81 1205.65 1161.69 1198.69C1160.14 1195.27 1157.8 1192.14 1155.42 1189.17C1150.71 1183.35 1144.36 1180.88 1136.89 1181.04C1133.61 1181.12 1130.85 1183.47 1130.72 1186.92C1130.49 1192.65 1130.33 1198.39 1130.33 1204.12C1130.3 1248.1 1130.31 1292.1 1130.31 1336.09C1130.31 1340.56 1130.35 1345.03 1130.28 1349.48C1130.08 1362.23 1129.3 1362.96 1115.69 1363.17C1114.42 1363.2 1113.14 1363.19 1111.87 1363.19C1094.66 1363.19 1077.44 1363.2 1060.23 1363.17C1056.4 1363.16 1052.57 1363.05 1048.76 1362.85C1044.43 1362.63 1042.21 1360.17 1041.95 1355.4C1041.8 1352.85 1041.72 1350.31 1041.69 1347.76C1041.66 1343.29 1041.67 1338.83 1041.67 1334.38C1041.67 1201.76 1041.67 1069.15 1041.69 936.531C1041.69 929.521 1041.84 922.505 1042.12 915.505C1042.3 911.401 1045.25 908.761 1049.69 908.531C1053.5 908.349 1057.33 908.255 1061.16 908.255C1102.6 908.229 1144.04 908.104 1185.48 908.292C1200.77 908.36 1215.89 910.172 1230.84 913.813C1248.57 918.146 1261.71 928.438 1271.63 943.266C1277.32 951.771 1281.54 961.026 1284.87 970.719C1289.88 985.292 1292.54 1000.27 1293.36 1015.63C1294.69 1039.91 1294.44 1064.05 1288.37 1087.81C1284.89 1101.48 1279.55 1114.36 1272.17 1126.4C1262.95 1141.45 1250.4 1152.86 1234.64 1160.79C1232.93 1161.64 1232.71 1164.52 1234.05 1165.72C1234.52 1166.15 1234.93 1166.65 1235.45 1167C1247.59 1175.02 1255.19 1186.56 1261.31 1199.44C1267.87 1213.26 1273.88 1227.23 1278.4 1241.9C1287.79 1272.31 1297.69 1302.56 1307.44 1332.85C1309 1337.68 1310.88 1342.4 1312.68 1347.15C1312.81 1347.51 1313.56 1347.9 1313.95 1347.83C1314.54 1347.73 1315.33 1347.39 1315.57 1346.91C1316.68 1344.67 1318.02 1342.43 1318.59 1340.03C1326.45 1305.91 1334.14 1271.74 1342 1237.63C1356.71 1173.73 1371.5 1109.85 1386.23 1045.95C1395.67 1005 1405.02 964.042 1414.42 923.078C1414.99 920.599 1415.43 918.078 1416.09 915.641C1417.4 910.813 1420.45 908.412 1425.89 908.401C1452.02 908.307 1478.16 908.333 1504.31 908.333C1505.57 908.333 1506.85 908.469 1508.12 908.625C1510.79 908.974 1513.16 910.172 1513.99 912.771C1515.52 917.615 1516.79 922.563 1517.93 927.505C1537.88 1014.39 1557.84 1101.26 1577.72 1188.15C1590.36 1243.38 1602.91 1298.63 1615.45 1353.86C1615.87 1355.69 1616.14 1357.64 1615.95 1359.47C1615.84 1360.4 1614.67 1361.72 1613.75 1361.97C1611.32 1362.63 1608.77 1363.09 1606.28 1363.1C1582.69 1363.17 1559.09 1363.2 1535.5 1363.07C1532.44 1363.04 1529.37 1362.09 1526.54 1361.61Z" fill="#EB3837"/>
<path fill-rule="evenodd" clip-rule="evenodd" d="M3812.04 1056.77C3811.21 1058.1 3810.28 1059.03 3810.02 1060.12C3808.72 1065.69 3807.48 1071.28 3806.43 1076.91C3801.48 1103.17 3796.56 1129.44 3791.72 1155.72C3789.19 1169.48 3786.81 1183.28 3784.4 1197.07C3783.96 1199.65 3785.88 1202.19 3788.6 1202.2C3803.85 1202.31 3819.12 1202.32 3834.38 1202.25C3837.21 1202.24 3839.35 1199.79 3838.96 1197.39C3837.77 1189.84 3836.66 1182.29 3835.3 1174.79C3829.32 1142.24 3823.28 1109.71 3817.23 1077.19C3816.3 1072.19 3815.14 1067.21 3813.97 1062.27C3813.56 1060.47 3812.75 1058.74 3812.04 1056.77ZM4113.9 1056.77C4109.19 1073.02 4088.77 1182.5 4087.16 1200.48C4102.25 1202.83 4117.47 1201.32 4132.6 1201.59C4135.66 1201.64 4138.73 1200.8 4141.96 1200.33C4141.96 1197.84 4142.25 1195.91 4141.92 1194.09C4134.26 1152.32 4126.63 1110.55 4118.73 1068.81C4117.95 1064.65 4117.66 1059.92 4113.9 1056.77ZM3857.97 923.854C3861.25 926.625 3862.44 930.104 3863.32 933.958C3872.19 973.067 3881.16 1012.16 3890.14 1051.25C3903.66 1110.19 3917.25 1169.09 3930.75 1228.04C3940.25 1269.6 3949.61 1311.2 3959.13 1352.76C3959.83 1355.8 3961.21 1358.68 3962.41 1361.57C3962.59 1362.02 3963.47 1362.29 3964.05 1362.4C3964.45 1362.47 3965.24 1362.19 3965.31 1361.92C3967.02 1355.8 3968.85 1349.71 3970.28 1343.52C3983.55 1285.83 3996.71 1228.1 4010 1170.43C4023.57 1111.5 4037.26 1052.61 4050.95 993.719C4055.83 972.64 4060.8 951.573 4065.76 930.521C4066.2 928.666 4066.59 926.734 4067.47 925.067C4067.97 924.094 4069.33 923.041 4070.4 922.948C4074.83 922.521 4079.28 922.281 4083.73 922.265C4106.04 922.198 4128.35 922.229 4150.66 922.255C4153.2 922.255 4155.76 922.317 4158.3 922.453C4161.88 922.64 4164.36 924.562 4165.16 927.88C4167.56 937.771 4169.99 947.666 4172.25 957.599C4191.96 1043.85 4211.56 1130.14 4231.35 1216.39C4242.01 1262.91 4252.96 1309.36 4263.78 1355.85C4263.92 1356.47 4264.12 1357.08 4264.23 1357.71C4267.56 1378.67 4271.73 1377.36 4248.71 1377.39C4228.95 1377.41 4209.19 1377.41 4189.43 1377.36C4186.25 1377.36 4183.08 1377.02 4179.9 1376.84C4177.71 1376.71 4176.38 1375.08 4175.65 1373.45C4174.63 1371.17 4174.09 1368.62 4173.64 1366.15C4170.68 1349.85 4167.84 1333.55 4164.81 1317.28C4164.12 1313.53 4163.13 1309.79 4161.73 1306.25C4161.13 1304.76 4159.31 1303.39 4157.72 1302.72C4156.05 1302.02 4153.99 1302.05 4152.09 1302.05C4127.24 1302 4102.37 1301.98 4077.52 1302.05C4075.01 1302.05 4072.47 1302.49 4070.02 1303.1C4068.97 1303.37 4067.6 1304.45 4067.33 1305.43C4065.64 1311.55 4063.97 1317.69 4062.76 1323.92C4059.84 1338.92 4057.21 1353.96 4054.4 1368.98C4053.14 1375.72 4051.32 1377.1 4043.95 1377.35C4042.68 1377.39 4041.4 1377.39 4040.13 1377.39C3989.13 1377.53 3938.14 1377.69 3887.16 1377.81C3883.97 1377.83 3880.76 1377.83 3877.63 1377.4C3875.84 1377.16 3874.19 1376.04 3872.52 1375.33C3867.12 1352.21 3864.28 1328.81 3858.87 1306.44C3857.11 1305.52 3856 1304.44 3854.88 1304.44C3826.84 1304.21 3798.81 1304.07 3770.78 1304.03C3769 1304.03 3767.2 1305.05 3764.89 1305.74C3762.87 1312.31 3761.38 1319.07 3760.16 1325.92C3757.35 1341.57 3754.36 1357.2 3751.41 1372.83C3751 1375.03 3748.37 1377.15 3745.93 1377.37C3744.04 1377.55 3742.13 1377.79 3740.24 1377.79C3717.3 1377.81 3694.35 1377.85 3671.4 1377.76C3668.3 1377.74 3665.2 1377 3661.8 1376.56C3662.09 1368.31 3664.28 1360.96 3665.97 1353.57C3687.25 1260.5 3708.68 1167.47 3730.05 1074.43C3740.32 1029.76 3750.53 985.078 3760.83 940.427C3761.83 936.094 3763.08 931.802 3764.53 927.588C3765.41 925.026 3767.68 923.734 3770.36 923.375C3771.63 923.213 3772.9 923.041 3774.17 923.041C3800.31 923.041 3826.44 923.041 3852.57 923.094C3854.45 923.104 3856.32 923.614 3857.97 923.854Z" fill="#13A4DE"/>
<path fill-rule="evenodd" clip-rule="evenodd" d="M3432.97 922.881C3436.12 925.412 3436.95 928.495 3437.44 931.615C3440.33 949.855 3443.13 968.105 3445.97 986.36C3449.4 1008.38 3452.87 1030.4 3456.3 1052.43C3459.32 1071.93 3462.35 1091.44 3465.33 1110.95C3468.32 1130.47 3471.21 1150 3474.25 1169.51C3474.73 1172.59 3475.2 1175.88 3478.75 1177.36C3481.83 1173.64 3480.66 1168.98 3481.55 1164.8C3482.47 1160.44 3483.47 1156.08 3484.16 1151.68C3490.52 1111.41 3496.89 1071.16 3503.13 1030.88C3507.52 1002.55 3511.68 974.198 3516.02 945.865C3517 939.573 3518.35 933.334 3519.56 927.079C3520.04 924.589 3522.25 922.787 3524.89 922.589C3526.17 922.495 3527.44 922.308 3528.71 922.308C3561.23 922.292 3593.73 922.282 3626.25 922.334C3628.11 922.349 3630.05 922.667 3631.78 923.308C3632.83 923.683 3633.93 924.802 3634.33 925.839C3635 927.589 3635.35 929.532 3635.41 931.412C3635.6 936.506 3635.61 941.615 3635.61 946.719C3635.63 1081.88 3635.63 1217.05 3635.6 1352.23C3635.6 1358.6 3635.36 1364.96 3635.08 1371.33C3634.95 1374.51 3632.12 1377.08 3628.69 1377.09C3608.93 1377.19 3589.17 1377.23 3569.41 1377.17C3565.28 1377.17 3562.64 1374.26 3562.5 1369.75C3562.32 1363.38 3562.3 1357 3562.3 1350.63C3562.28 1267.09 3562.28 1183.57 3562.28 1100.04C3562.28 1093.67 3562.3 1087.29 3562.08 1080.92C3562.01 1078.45 3561.35 1076.02 3560.88 1073.12C3559.5 1074.43 3558.12 1075.1 3557.97 1075.97C3553.68 1103.03 3549.56 1130.1 3545.3 1157.16C3540.81 1185.45 3536.13 1213.73 3531.68 1242.04C3527.33 1269.72 3523.17 1297.44 3518.85 1325.14C3516.5 1340.23 3514.01 1355.31 3511.49 1370.39C3511.19 1372.17 3510.32 1373.85 3509.8 1375.36C3508.3 1376 3507.14 1376.92 3506 1376.92C3487.52 1377.08 3469.02 1377.16 3450.55 1377.17C3447.31 1377.17 3444.37 1374.63 3443.83 1371.53C3442.3 1362.76 3440.75 1353.97 3439.36 1345.17C3432.95 1304.27 3426.52 1263.38 3420.23 1222.47C3413.44 1178.4 3406.85 1134.31 3400.05 1090.26C3398.89 1082.75 3397.08 1075.36 3395.64 1068.29C3394.13 1066.93 3393.38 1067.39 3393.33 1069.35C3393.17 1076.36 3392.97 1083.38 3392.97 1090.38C3392.95 1177.73 3392.96 1265.08 3392.95 1352.43C3392.95 1358.17 3392.95 1363.91 3392.78 1369.64C3392.63 1375.28 3390.52 1377.26 3384.3 1377.28C3365.81 1377.38 3347.32 1377.35 3328.83 1377.28C3326.95 1377.28 3324.99 1377.03 3323.24 1376.39C3322.2 1376 3320.89 1374.69 3320.78 1373.69C3320.28 1368.64 3319.87 1363.55 3319.87 1358.47C3319.83 1219.48 3319.83 1080.48 3319.85 941.48C3319.85 937.026 3320 932.563 3320.2 928.12C3320.35 924.735 3322.76 922.641 3326.48 922.427C3327.75 922.36 3329.02 922.266 3330.3 922.266C3362.17 922.266 3394.05 922.256 3425.93 922.292C3428.45 922.292 3430.97 922.709 3432.97 922.881Z" fill="#13A4DE"/>
<path fill-rule="evenodd" clip-rule="evenodd" d="M3781.72 1635.44C3780.04 1637.29 3777.97 1638.92 3776.75 1641.03C3749.45 1687.8 3722.25 1734.61 3695.05 1781.44C3694.11 1783.09 3693.35 1784.85 3692.52 1786.59C3691.77 1788.14 3692.97 1791.02 3694.48 1791.09C3700.81 1791.44 3707.14 1791.97 3713.48 1791.97C3726.23 1791.97 3738.97 1791.55 3751.72 1791.51C3860.73 1791.24 3969.73 1791.05 4078.75 1790.74C4116.99 1790.62 4155.23 1790.29 4193.48 1789.97C4207.49 1789.85 4221.5 1789.44 4235.52 1789.29C4238.68 1789.27 4241.84 1789.84 4245 1790.12C4247.25 1790.32 4248.36 1792.1 4249.02 1793.74C4249.71 1795.45 4249.64 1797.51 4249.65 1799.41C4249.69 1832.56 4249.69 1865.71 4249.67 1898.85C4249.67 1900.76 4249.71 1902.81 4249.02 1904.51C4248.37 1906.08 4247.01 1907.73 4245.53 1908.48C4243.92 1909.28 4241.81 1909.24 4239.92 1909.29C4232.9 1909.48 4225.9 1909.6 4218.89 1909.65C4185.11 1909.9 4151.32 1909.96 4117.55 1910.37C4069.76 1910.95 4021.97 1911.86 3974.17 1912.47C3944.85 1912.84 3915.53 1912.93 3886.21 1913.04C3832.67 1913.24 3779.11 1912.88 3725.57 1913.67C3691.81 1914.16 3658.02 1913.61 3624.28 1915.59C3603.31 1916.81 3582.21 1916.24 3561.19 1916.35C3519.75 1916.56 3478.32 1916.69 3436.88 1916.81C3434.99 1916.83 3433.07 1916.56 3431.2 1916.26C3430.73 1916.19 3430.33 1915.51 3429.97 1915.07C3429.02 1913.95 3429.13 1912.77 3430.32 1911.72C3433.64 1908.76 3436.89 1905.72 3440.35 1902.92C3460.19 1886.92 3480.08 1870.97 3499.95 1855C3583.4 1787.91 3666.84 1720.83 3750.3 1653.74C3757.75 1647.76 3765.17 1641.74 3772.67 1635.81C3775.53 1633.53 3778.5 1633.9 3781.4 1635.93L3781.72 1635.44Z" fill="#EB3837"/>
<path fill-rule="evenodd" clip-rule="evenodd" d="M3171.65 1947.29C3170.81 1944.2 3169.65 1940.62 3168.85 1936.96C3164.72 1917.92 3153.76 1903.55 3138.49 1892.05C3131.35 1886.68 3123.59 1882.31 3115.49 1878.52C3099.81 1871.19 3083.19 1866.96 3066.33 1863.55C3063.85 1863.05 3061.25 1863.19 3058.71 1863.08C3056.65 1863 3053.36 1865.64 3053.26 1867.5C3053.07 1871.96 3052.83 1876.41 3052.81 1880.86C3052.76 1900.62 3052.83 1920.39 3052.73 1940.15C3052.72 1943.29 3052.23 1946.47 3051.57 1949.53C3051.37 1950.5 3050.08 1951.59 3049.04 1951.98C3047.31 1952.67 3045.37 1953.19 3043.53 1953.19C3016.76 1953.25 2989.99 1953.25 2963.21 1953.17C2961.36 1953.17 2959.41 1952.68 2957.69 1951.98C2956.64 1951.55 2955.37 1950.4 2955.16 1949.36C2954.5 1946.28 2954.01 1943.1 2953.99 1939.96C2953.89 1919.56 2953.96 1899.16 2953.9 1878.76C2953.9 1873.67 2953.88 1868.56 2953.49 1863.48C2953.36 1861.73 2952.12 1860.08 2951.25 1858.07C2924.69 1858.35 2899.25 1863.17 2875.47 1874.86C2848.08 1888.32 2827.73 1908.45 2817.87 1938.03C2817.25 1939.84 2816.48 1941.6 2815.64 1943.32C2815.08 1944.44 2814.26 1945.44 2813.25 1946.97C2809.16 1947.19 2804.73 1947.59 2800.31 1947.61C2773.53 1947.77 2746.76 1947.77 2719.99 1947.95C2701.5 1948.07 2683.02 1948.41 2664.55 1948.55C2660.11 1948.59 2655.65 1948.19 2651.21 1947.92C2649.43 1947.81 2647.53 1945.49 2648.01 1943.97C2649.92 1937.92 2651.47 1931.72 2653.9 1925.88C2685.48 1850.28 2739.55 1799.12 2818.45 1775.17C2838.59 1769.07 2859.09 1765.24 2880.2 1763.71C2902.44 1762.1 2924.66 1760.32 2946.96 1759.44C2950.38 1759.31 2953.23 1756.62 2953.41 1753.56C2953.69 1749.12 2953.88 1744.65 2953.9 1740.21C2953.96 1724.27 2953.89 1708.33 2953.99 1692.4C2954 1689.24 2954.12 1685.97 2954.96 1682.97C2955.37 1681.48 2957.33 1680.07 2958.92 1679.32C2960.57 1678.56 2962.61 1678.41 2964.49 1678.4C2990.63 1678.36 3016.76 1678.36 3042.89 1678.43C3044.78 1678.43 3046.88 1678.52 3048.49 1679.35C3049.99 1680.1 3051.81 1681.74 3052.02 1683.23C3052.68 1687.61 3052.75 1692.09 3052.76 1696.55C3052.84 1714.4 3052.75 1732.25 3052.9 1750.09C3052.93 1753.16 3053.84 1756.21 3054.36 1759.41C3066.8 1762.07 3078.83 1763.76 3090.89 1763.84C3119.9 1764.03 3147.78 1770.19 3174.96 1779.49C3249.55 1805.05 3304.99 1853.04 3341.02 1923.27C3344.49 1930.03 3348.21 1936.74 3349.35 1944.43C3349.48 1945.31 3348.43 1947 3347.61 1947.25C3345.21 1947.97 3342.66 1948.43 3340.17 1948.5C3288.56 1950 3236.92 1949.55 3185.3 1949.52C3180.93 1949.52 3176.37 1950.23 3171.65 1947.29Z" fill="#EB3837"/>
<path fill-rule="evenodd" clip-rule="evenodd" d="M718.629 1136.51C718.629 1068.32 718.613 1000.14 718.629 931.932C718.639 926.198 718.733 920.469 718.905 914.734C718.998 911.719 721.905 909.052 725.201 908.708C726.451 908.589 727.717 908.349 728.988 908.349C751.295 908.318 773.597 908.307 795.905 908.349C797.8 908.349 799.691 908.745 801.587 909.016C803.399 909.266 806.144 912.401 806.186 914.438C806.332 920.172 806.477 925.906 806.477 931.641C806.504 968.599 806.477 1005.57 806.493 1042.53C806.504 1048.27 806.519 1054 806.655 1059.73C806.774 1064.47 809.134 1067 813.358 1067.23C814.629 1067.29 815.905 1067.36 817.17 1067.36C840.759 1067.36 864.332 1067.36 887.92 1067.32C889.811 1067.31 891.905 1067.36 893.535 1066.59C895.04 1065.88 896.931 1064.21 897.108 1062.79C897.733 1057.76 897.852 1052.64 897.868 1047.56C897.92 1008.68 897.868 969.802 897.92 930.932C897.92 925.198 898.17 919.479 898.425 913.76C898.535 911.437 901.014 909.172 903.493 908.88C905.384 908.651 907.295 908.307 909.186 908.307C930.852 908.266 952.535 908.255 974.201 908.318C976.717 908.318 979.347 908.547 981.733 909.292C983.399 909.828 985.144 911.026 985.373 913.266C985.571 915.146 985.946 917.042 985.972 918.932C986.066 924.667 986.04 930.401 986.04 936.135C986.04 1069.33 986.04 1202.53 986.04 1335.73C986.04 1340.2 986.082 1344.67 986.024 1349.12C985.868 1362.53 985.441 1363.08 972.066 1363.15C951.665 1363.26 931.28 1363.21 910.879 1363.12C907.733 1363.1 904.535 1362.69 901.441 1362.07C900.415 1361.86 898.988 1360.49 898.868 1359.52C898.321 1355.14 897.931 1350.69 897.931 1346.27C897.868 1299.1 897.905 1251.93 897.879 1204.77C897.868 1199.05 897.717 1193.32 897.535 1187.59C897.425 1184.43 894.655 1181.77 891.358 1181.6C888.186 1181.44 884.998 1181.32 881.811 1181.32C862.05 1181.29 842.295 1181.27 822.545 1181.35C818.748 1181.36 814.946 1181.83 811.144 1182.12C808.905 1182.28 807.399 1184.15 807.238 1185.73C806.665 1191.43 806.519 1197.17 806.519 1202.9C806.467 1248.79 806.504 1294.67 806.467 1340.56C806.467 1346.28 806.238 1352.02 806.024 1357.73C805.931 1360.07 803.493 1362.36 801.082 1362.63C800.451 1362.69 799.826 1362.96 799.201 1362.96C774.988 1362.97 750.774 1362.98 726.561 1362.95C725.321 1362.95 723.837 1362.8 722.894 1362.14C721.451 1361.12 719.441 1359.68 719.306 1358.26C718.733 1352.57 718.655 1346.83 718.639 1341.09C718.613 1272.91 718.629 1204.71 718.629 1136.51Z" fill="#EB3837"/>
<path fill-rule="evenodd" clip-rule="evenodd" d="M356.332 2131.67C297.759 2131.32 239.202 2130.98 180.639 2130.61C176.827 2130.59 173.009 2130.44 169.202 2130.24C166.087 2130.07 163.311 2127.26 163.212 2124.02C163.014 2117.65 163.014 2111.29 162.848 2104.93C162.113 2077.57 161.337 2050.23 160.634 2022.88C160.582 2020.98 160.514 2018.91 161.249 2017.27C161.931 2015.75 163.566 2013.81 164.978 2013.63C170.004 2013 175.113 2012.85 180.186 2012.85C221.566 2012.88 262.947 2012.98 304.322 2013.05C378.801 2013.17 453.28 2013.28 527.775 2013.43C532.853 2013.44 537.931 2013.64 543.014 2013.9C546.051 2014.04 548.717 2016.97 548.973 2020.26C549.212 2023.41 549.426 2026.6 549.467 2029.79C549.811 2060.97 550.134 2092.16 550.426 2123.35C550.441 2125.24 550.17 2127.15 549.999 2129.04C549.775 2131.57 547.535 2134.04 545.295 2134.2C543.384 2134.33 541.493 2134.52 539.587 2134.5C503.947 2134.08 468.306 2133.72 432.665 2133.15C407.228 2132.73 381.785 2132.03 356.332 2131.44C356.332 2131.52 356.332 2131.6 356.332 2131.67Z" fill="#13A4DE"/>
<path fill-rule="evenodd" clip-rule="evenodd" d="M603.837 1802.56C603.853 1757.95 603.827 1713.33 603.868 1668.72C603.868 1656.77 603.868 1654.33 617.8 1654.35C636.28 1654.36 654.759 1654.33 673.254 1654.39C675.774 1654.4 678.306 1654.79 680.827 1655.07C682.988 1655.31 685.691 1657.96 685.811 1660.17C686.108 1665.88 686.441 1671.6 686.452 1677.31C686.504 1719.37 686.478 1761.44 686.478 1803.49C686.478 1844.28 686.478 1885.07 686.478 1925.85C686.478 1929.68 686.452 1933.5 686.467 1937.32C686.519 1951.1 684.665 1951.29 672.321 1951.31C653.837 1951.32 635.358 1951.35 616.879 1951.27C613.717 1951.25 610.519 1950.91 607.415 1950.31C606.384 1950.1 604.92 1948.74 604.8 1947.77C604.254 1943.37 603.879 1938.91 603.879 1934.47C603.811 1890.5 603.837 1846.53 603.837 1802.56Z" fill="#13A4DE"/>
<path fill-rule="evenodd" clip-rule="evenodd" d="M397.358 1833C420.306 1833 443.264 1832.95 466.212 1833.04C472.571 1833.07 478.931 1833.53 485.28 1833.91C487.587 1834.04 490.144 1836.6 490.493 1838.8C490.8 1840.68 491.238 1842.57 491.253 1844.45C491.306 1861.04 491.306 1877.61 491.238 1894.19C491.227 1896.07 491.134 1898.16 490.321 1899.77C489.561 1901.31 487.988 1903.1 486.451 1903.45C483.425 1904.16 480.17 1904.26 477.024 1904.08C439.467 1901.97 401.868 1901.63 364.264 1901.39C359.17 1901.36 354.066 1901.56 348.972 1901.52C343.092 1901.48 337.681 1903.21 332.358 1905.48C325.321 1908.49 320.894 1913.73 320.384 1921.38C319.717 1931.53 319.691 1941.74 319.384 1951.93C319.332 1953.84 319.321 1955.74 319.264 1957.65C319.186 1960.05 316.946 1962.73 314.8 1963.07C313.545 1963.27 312.306 1963.69 311.05 1963.69C291.931 1963.76 272.811 1963.77 253.686 1963.79C253.05 1963.79 252.41 1963.71 251.774 1963.67C247.035 1963.35 244.462 1961.1 244.425 1956.74C244.326 1943.36 244.285 1929.97 244.42 1916.59C244.488 1909.59 244.79 1902.57 245.28 1895.57C246.977 1871.23 260.082 1854.1 280.16 1841.72C288.451 1836.6 297.962 1834.84 307.503 1833.96C314.477 1833.31 321.503 1833.05 328.519 1833.03C351.467 1832.91 374.415 1832.97 397.358 1832.97C397.358 1832.98 397.358 1833 397.358 1833Z" fill="#13A4DE"/>
<path fill-rule="evenodd" clip-rule="evenodd" d="M2979.14 675.734C2980.67 673.802 2981.55 671.932 2983.02 670.922C3009.75 652.64 3036.54 634.437 3063.33 616.291C3064.33 615.614 3065.73 615.213 3066.92 615.255C3068.01 615.291 3069.72 615.864 3070.02 616.64C3071.89 621.333 3073.68 626.093 3075.04 630.958C3084.24 664.015 3090.88 697.562 3095.16 731.651C3097.77 752.521 3098.31 773.437 3099.63 794.349C3099.75 796.239 3099.67 798.187 3099.32 800.041C3099.11 801.161 3098.42 802.562 3097.52 803.052C3096.67 803.521 3094.9 803.385 3094.17 802.76C3091.76 800.734 3089.54 798.453 3087.42 796.104C3064.73 771.213 3042.09 746.281 3019.45 721.359C3008.35 709.135 2997.2 696.948 2986.16 684.651C2983.65 681.864 2981.5 678.744 2979.14 675.734Z" fill="#13A4DE"/>
<path fill-rule="evenodd" clip-rule="evenodd" d="M1679.28 1351.23C1678.3 1351.91 1677.33 1352.65 1676.28 1353.2C1676.09 1353.31 1675.11 1352.41 1675.14 1352.36C1676.33 1350.29 1677.97 1350.84 1679.67 1351.68C1679.69 1351.71 1679.28 1351.23 1679.28 1351.23Z" fill="#13A4DE"/>
<path fill-rule="evenodd" clip-rule="evenodd" d="M3937.93 4.47917C3937.59 4.10417 3937.25 3.73438 3936.9 3.35938C3936.4 4.80208 3936.77 4.92188 3938.04 3.68229C3938.05 3.65104 3937.93 4.47917 3937.93 4.47917Z" fill="#13A4DE"/>
<path fill-rule="evenodd" clip-rule="evenodd" d="M3781.4 1635.93L3780.61 1635.2C3780.61 1635.2 3781.66 1635.47 3781.69 1635.45C3781.72 1635.44 3781.4 1635.93 3781.4 1635.93Z" fill="#13A4DE"/>
</g>
<defs>
<clipPath id="clip0_17_732">
<rect width="4267" height="2281" fill="white"/>
</clipPath>
</defs>
</svg>
